<?xml version="1.0" encoding="utf-8"?>
<!-- Generator: Adobe Illustrator 20.1.0, SVG Export Plug-In . SVG Version: 6.00 Build 0)  -->
<svg version="1.1" id="レイヤー_1" xmlns="http://www.w3.org/2000/svg" xmlns:xlink="http://www.w3.org/1999/xlink" x="0px"
	 y="0px" viewBox="0 0 500 500" style="enable-background:new 0 0 500 500;" xml:space="preserve">
<style type="text/css">
	.st0{fill:#E32660;}
	.st1{fill:#F7F8F8;}
	.st2{font-family:'RyoGothicPlusN-UltraHeavy-83pv-RKSJ-H';}
	.st3{font-size:291.0553px;}
	.st4{letter-spacing:-6;}
</style>
<g>
	<path class="st0" d="M249.1,493.6c-22.4-22.4-109.2-114.7-152.9-167.5C50.7,270.9,6.4,210.9,6.4,129.6C6.4,61,59.2,6.4,124.7,6.4
		c58.2,0,105.6,34,125,95.3h0.6c20-64.3,69.2-95.3,125-95.3c65.5,0,118.3,54.6,118.3,123.2c0,81.3-44.3,141.4-89.8,196.6
		c-43.7,52.8-131.1,145-153.5,167.5H249.1z"/>
</g>
<text transform="matrix(1 0 0 1 104.3538 347.9521)" class="st1 st2 st3 st4">萌</text>
</svg>
